<svg xmlns:xlink="http://www.w3.org/1999/xlink" width="2.228ex" height="2.343ex" style="font-size: 15px; vertical-align: -1.005ex;" viewBox="0 -576.1 959.2 1008.6" role="img" focusable="false" xmlns="http://www.w3.org/2000/svg">
<defs>
<path stroke-width="1" id="E1-MJMATHBI-76" d="M380 367Q380 397 406 425T465 453Q493 453 516 430T540 357Q540 314 524 250T467 115T373 13Q338 -8 292 -8Q218 -8 167 23T116 129Q116 178 152 275T189 388Q189 396 187 398T176 401Q148 398 125 372T89 304Q84 288 81 285T61 282H55H44Q24 282 24 296Q24 306 34 330T64 382T116 431T189 452Q231 452 269 429T308 362Q308 346 273 255T238 114Q238 43 306 43Q336 43 363 65T407 118T437 182T456 239T462 268Q462 290 417 315Q380 335 380 367Z"></path>
<path stroke-width="1" id="E1-MJMATHI-6A" d="M297 596Q297 627 318 644T361 661Q378 661 389 651T403 623Q403 595 384 576T340 557Q322 557 310 567T297 596ZM288 376Q288 405 262 405Q240 405 220 393T185 362T161 325T144 293L137 279Q135 278 121 278H107Q101 284 101 286T105 299Q126 348 164 391T252 441Q253 441 260 441T272 442Q296 441 316 432Q341 418 354 401T367 348V332L318 133Q267 -67 264 -75Q246 -125 194 -164T75 -204Q25 -204 7 -183T-12 -137Q-12 -110 7 -91T53 -71Q70 -71 82 -81T95 -112Q95 -148 63 -167Q69 -168 77 -168Q111 -168 139 -140T182 -74L193 -32Q204 11 219 72T251 197T278 308T289 365Q289 372 288 376Z"></path>
</defs>
<g stroke="currentColor" fill="currentColor" stroke-width="0" transform="matrix(1 0 0 -1 0 0)">
 <use xlink:href="#E1-MJMATHBI-76" x="0" y="0"></use>
 <use transform="scale(0.707)" xlink:href="#E1-MJMATHI-6A" x="802" y="-213"></use>
</g>
</svg>